<?xml version="1.0" standalone="no"?>
<!DOCTYPE svg PUBLIC "-//W3C//DTD SVG 20010904//EN"
 "http://www.w3.org/TR/2001/REC-SVG-20010904/DTD/svg10.dtd">
<svg version="1.0" xmlns="http://www.w3.org/2000/svg"
 width="810.000000pt" height="810.000000pt" viewBox="0 0 810.000000 810.000000"
 preserveAspectRatio="xMidYMid meet">
<metadata>
Created by potrace 1.16, written by Peter Selinger 2001-2019
</metadata>
<g transform="translate(0.000000,810.000000) scale(0.100000,-0.100000)"
fill="#000000" stroke="none">
<path d="M4188 6698 c-9 -7 -19 -31 -23 -53 -4 -22 -11 -60 -17 -85 -5 -25
-12 -63 -15 -85 -3 -22 -9 -44 -13 -50 -5 -5 -13 -35 -19 -65 -6 -30 -14 -68
-19 -85 -9 -27 -10 -28 -17 -10 -4 11 -15 38 -25 60 -43 96 -80 188 -80 201 0
8 -4 14 -9 14 -14 0 -20 37 -7 50 8 8 7 10 -5 5 -13 -5 -19 2 -26 32 l-9 38
-73 -1 c-39 -1 -75 -4 -78 -8 -6 -6 -10 -23 -33 -151 -6 -33 -15 -64 -21 -69
-5 -6 -9 -21 -9 -34 0 -14 -5 -43 -11 -66 -34 -133 -31 -124 -42 -96 -5 14
-21 47 -34 74 -12 28 -23 58 -23 67 0 10 -5 21 -11 24 -6 4 -8 14 -5 22 3 8 1
11 -4 8 -6 -3 -10 -2 -10 4 0 6 -12 36 -26 68 -35 81 -41 95 -48 117 -6 17
-14 18 -72 13 -36 -2 -70 -9 -76 -15 -6 -6 -2 -26 12 -58 27 -60 44 -100 60
-139 7 -16 16 -38 22 -48 5 -10 6 -23 2 -30 -4 -7 -4 -9 1 -5 7 7 27 -29 57
-102 6 -14 16 -38 23 -55 7 -16 18 -42 24 -57 6 -16 15 -38 20 -50 5 -13 12
-31 15 -40 4 -15 18 -18 79 -18 48 0 78 5 85 13 11 14 39 116 54 197 6 30 14
59 19 64 5 6 9 21 9 35 1 15 7 47 13 74 10 37 16 44 25 35 7 -7 12 -16 12 -21
0 -5 7 -25 16 -45 29 -66 42 -96 64 -144 12 -26 18 -53 14 -59 -4 -8 -3 -9 4
-5 7 4 12 1 13 -6 0 -7 10 -33 22 -57 l22 -45 65 3 c72 3 100 14 100 39 0 9
12 62 26 117 30 117 39 159 54 239 6 32 15 67 20 77 6 10 10 30 10 44 0 14 4
34 9 43 4 9 11 34 14 55 l6 37 -58 0 c-31 0 -64 -6 -73 -12z"/>
<path d="M5144 6464 c-7 -28 -40 -67 -47 -56 -2 4 -2 1 -1 -5 2 -7 1 -20 -3
-29 -5 -13 -8 -13 -15 -2 -8 10 -9 9 -4 -4 6 -19 -20 -78 -35 -78 -5 0 -9 -7
-9 -16 0 -19 -25 -46 -34 -36 -4 3 -4 -2 0 -12 4 -10 3 -21 -2 -25 -14 -10
-34 -49 -34 -66 0 -9 -4 -13 -10 -10 -5 3 -10 -2 -10 -12 0 -15 -2 -16 -11 -3
-9 12 -10 12 -5 -3 7 -20 -16 -61 -28 -50 -4 4 -4 0 0 -10 3 -10 1 -17 -5 -17
-6 0 -11 -6 -11 -13 0 -7 -11 -29 -25 -49 -37 -54 -32 -69 30 -100 l54 -28 12
23 12 22 11 -25 c59 -138 254 -182 363 -82 23 20 54 57 69 82 23 38 28 56 28
120 0 64 -4 81 -26 116 -52 81 -149 134 -220 120 -30 -6 -30 -6 -14 17 9 12
20 32 26 44 5 12 22 41 37 64 26 39 41 105 22 93 -10 -6 -81 34 -87 48 -7 17
-22 7 -28 -18z m106 -374 c34 -24 49 -68 42 -125 -4 -38 -28 -69 -44 -59 -4 3
-5 -3 -1 -12 5 -14 3 -16 -12 -10 -11 4 -16 4 -12 0 15 -15 -17 -34 -58 -34
-35 0 -48 6 -78 35 -33 32 -37 42 -37 84 0 56 25 115 46 107 8 -3 13 0 11 6
-3 18 45 38 81 33 18 -2 46 -14 62 -25z"/>
<path d="M4530 6451 c0 -14 -38 -20 -44 -7 -2 6 -5 -2 -5 -17 -1 -16 -5 -26
-9 -23 -13 8 -70 -57 -78 -88 -3 -14 -10 -29 -15 -32 -5 -3 -9 -33 -9 -67 0
-64 19 -117 54 -152 9 -9 14 -20 11 -25 -3 -5 0 -12 6 -16 8 -5 10 -2 5 7 -4
8 -1 6 7 -4 9 -10 18 -18 21 -18 3 1 30 -10 59 -24 62 -31 172 -38 225 -16 35
15 39 29 20 63 -25 43 -36 49 -73 42 -61 -11 -121 4 -160 40 -34 32 -49 86
-24 86 5 0 8 -4 5 -9 -4 -5 2 -7 12 -4 16 4 108 -17 152 -34 15 -7 104 -29
152 -39 25 -6 27 -4 34 41 10 72 -2 162 -26 187 -11 12 -18 28 -15 36 2 7 1
10 -4 7 -6 -3 -14 3 -20 12 -6 10 -11 14 -11 9 0 -5 -7 -3 -15 4 -44 36 -91
50 -172 50 -46 0 -83 -4 -83 -9z m145 -111 c-3 -5 0 -7 8 -4 18 6 69 -45 63
-63 -3 -8 -1 -11 4 -8 6 3 10 -3 10 -14 0 -23 -26 -27 -76 -12 -16 5 -57 17
-91 26 -35 10 -63 21 -63 25 0 15 49 52 61 45 8 -5 10 -4 5 3 -5 9 7 12 39 12
28 0 44 -4 40 -10z"/>
<path d="M2311 5988 c-1 -10 -5 -18 -11 -18 -5 0 -9 -4 -7 -9 1 -5 -8 -18 -20
-28 l-23 -20 25 -23 c13 -13 22 -27 19 -31 -3 -5 2 -9 10 -9 29 0 28 -23 -2
-46 l-31 -24 39 -43 39 -42 25 24 26 24 25 -23 c14 -13 23 -30 20 -38 -3 -7 0
-10 6 -7 11 7 126 -113 121 -127 -1 -5 1 -7 5 -5 5 3 28 2 53 -3 54 -10 104 5
154 46 47 40 84 114 56 114 -6 0 -29 9 -50 19 -33 16 -40 17 -40 4 0 -20 -22
-41 -52 -48 -28 -7 -82 30 -74 51 3 9 0 11 -11 7 -13 -5 -15 -2 -10 11 4 11 3
15 -4 11 -6 -4 -13 3 -16 15 -4 16 -8 18 -14 8 -6 -9 -9 -6 -9 12 0 17 -3 21
-8 12 -6 -9 -12 -6 -22 12 -10 21 -11 28 0 41 7 8 17 12 23 8 5 -3 7 -1 4 4
-4 6 2 18 13 28 26 23 25 35 -5 64 -14 13 -25 27 -25 32 0 17 -30 9 -31 -8 0
-15 -2 -15 -8 2 -8 19 -9 18 -12 -5 -3 -14 -10 -24 -16 -23 -7 2 -15 -6 -18
-17 -4 -12 -12 -17 -21 -13 -8 3 -13 12 -10 20 3 8 2 12 -3 8 -5 -3 -18 6 -29
20 -23 29 -50 33 -59 8 -6 -15 -7 -15 -14 3 -7 17 -8 17 -8 2z"/>
<path d="M3033 5952 c-67 -81 37 -187 120 -122 30 24 40 60 27 95 -16 42 -35
55 -82 55 -35 0 -47 -6 -65 -28z"/>
<path d="M5925 5860 c3 -5 1 -18 -4 -27 -6 -10 -11 -14 -11 -10 0 7 -10 0 -45
-30 -7 -7 -19 -11 -27 -10 -7 2 -9 2 -5 -1 4 -2 -5 -15 -20 -28 -27 -23 -38
-28 -56 -25 -5 1 -6 -3 -3 -8 4 -5 2 -12 -4 -16 -5 -3 -10 0 -10 7 -1 7 -7 0
-15 -17 -7 -16 -14 -26 -14 -22 -1 5 -18 -5 -40 -22 -21 -17 -41 -28 -45 -24
-3 3 -6 -3 -6 -14 0 -19 -39 -40 -63 -34 -5 1 -6 -3 -3 -8 3 -5 -17 -24 -44
-42 -27 -19 -50 -39 -50 -44 0 -6 12 -23 26 -38 14 -15 23 -34 20 -42 -3 -9 0
-12 10 -8 7 3 14 0 14 -5 0 -6 6 -17 13 -24 7 -7 33 -40 57 -73 74 -100 165
-175 213 -175 9 0 19 -4 22 -10 8 -13 132 -13 140 -1 3 5 18 12 33 16 15 3 51
23 79 44 28 22 55 36 60 33 4 -4 5 -3 1 1 -3 5 10 34 29 65 34 52 36 61 37
138 0 76 -5 96 -36 157 -5 10 -6 23 -2 30 4 7 4 9 -1 5 -4 -4 -22 11 -39 35
-17 23 -33 44 -36 47 -4 3 -15 20 -25 38 -11 17 -23 32 -28 32 -5 0 -7 9 -4
19 3 14 1 18 -9 14 -8 -3 -14 -1 -14 4 0 17 -59 75 -69 68 -6 -3 -11 -1 -11 4
0 6 -5 11 -11 11 -5 0 -7 -4 -4 -10z m62 -227 c19 -21 31 -46 29 -55 -2 -10
-1 -17 3 -16 32 4 56 -47 56 -123 0 -87 -29 -130 -114 -174 -60 -30 -88 -31
-144 -6 -56 26 -148 127 -130 144 3 4 -1 7 -11 7 -9 0 -19 7 -23 16 -7 19 55
77 75 69 7 -3 10 0 7 5 -3 5 15 24 41 42 25 18 54 40 64 48 10 8 31 24 46 35
15 11 32 25 38 32 17 20 28 15 63 -24z"/>
<path d="M2201 5683 c-6 -10 -11 -14 -11 -10 0 11 -90 -74 -90 -85 0 -4 -9
-17 -20 -28 -10 -10 -27 -45 -36 -75 -25 -90 -12 -128 69 -192 42 -34 134 6
222 96 50 52 85 56 85 9 0 -18 -9 -44 -20 -58 -11 -14 -20 -31 -20 -37 0 -7
-5 -13 -12 -13 -6 0 -25 -11 -42 -24 -17 -13 -41 -26 -52 -30 l-22 -7 27 -49
c16 -31 33 -50 44 -50 9 0 17 4 17 9 0 5 9 12 19 16 32 10 129 112 155 163 54
107 30 205 -61 241 -26 10 -39 10 -70 -1 -21 -7 -42 -19 -46 -25 -4 -7 -13
-13 -18 -13 -6 0 -17 -7 -25 -15 -8 -8 -22 -12 -32 -9 -14 5 -15 4 -2 -5 8 -5
12 -12 10 -13 -3 -2 -20 -16 -38 -31 -50 -40 -72 -36 -72 12 0 33 7 46 51 90
27 28 57 51 65 51 19 0 18 13 -6 60 -22 43 -52 53 -69 23z"/>
<path d="M1701 5361 c-25 -23 -31 -37 -31 -69 0 -23 5 -44 10 -47 6 -4 8 -11
4 -16 -3 -5 -2 -9 3 -8 4 1 20 -1 35 -5 48 -14 107 35 108 90 0 37 -42 84 -75
84 -13 0 -37 -13 -54 -29z"/>
<path d="M1886 5273 c2 -6 -6 -30 -17 -52 -21 -44 -24 -61 -10 -61 5 0 16 -6
23 -12 7 -7 44 -28 81 -46 37 -19 67 -38 67 -43 0 -5 3 -8 8 -7 15 4 52 -14
47 -23 -3 -5 0 -7 7 -4 7 3 44 -13 81 -35 38 -21 75 -41 83 -42 9 -2 25 17 42
47 15 28 31 53 37 57 12 9 11 9 -55 42 -30 15 -68 36 -85 46 -16 10 -64 36
-105 57 -41 22 -99 52 -128 68 -42 23 -55 27 -61 16 -5 -7 -11 -9 -13 -5 -3 5
-3 4 -2 -3z"/>
<path d="M1595 5078 c-40 -121 -42 -113 45 -142 30 -11 59 -23 65 -27 5 -5 16
-9 25 -9 8 0 38 -12 65 -25 28 -14 54 -25 58 -25 9 0 68 -25 99 -41 10 -5 23
-9 29 -9 6 0 27 -7 47 -16 21 -9 46 -20 57 -24 11 -4 33 -13 48 -19 44 -17 51
-14 68 37 9 26 19 54 23 62 7 17 -15 29 -119 66 -27 9 -54 21 -59 26 -6 4 -16
8 -24 8 -7 0 -38 12 -67 26 -30 14 -59 23 -65 19 -5 -3 -10 -3 -10 2 0 4 -15
14 -32 21 -18 7 -41 18 -50 23 -10 5 -23 9 -29 9 -6 0 -25 6 -42 14 -96 41
-124 46 -132 24z"/>
<path d="M6008 5062 c-46 -27 -88 -70 -88 -91 0 -6 -4 -11 -10 -11 -5 0 -11
-12 -11 -27 l-1 -28 -8 30 c-10 40 -5 -106 5 -160 4 -22 16 -57 26 -79 10 -21
16 -44 12 -50 -3 -6 -2 -8 2 -3 5 4 20 -3 34 -17 14 -13 38 -31 53 -40 l27
-18 25 51 26 50 -30 21 c-43 30 -60 70 -60 138 0 45 5 63 20 80 12 12 23 22
25 22 2 0 9 -15 14 -32 19 -61 57 -163 69 -185 7 -12 12 -31 12 -42 0 -11 5
-23 10 -26 6 -3 10 -18 10 -31 0 -23 3 -25 31 -19 71 16 129 64 163 136 27 54
34 124 17 157 -5 9 -17 36 -26 59 -10 23 -26 50 -36 59 -11 10 -19 23 -19 31
0 8 -4 12 -9 8 -5 -3 -15 1 -23 8 -27 26 -71 37 -141 36 -59 0 -80 -5 -119
-27z m197 -110 c39 -11 65 -57 65 -114 -1 -45 -21 -84 -39 -73 -7 3 -8 0 -5
-9 3 -9 1 -16 -5 -16 -6 0 -11 8 -11 18 0 10 -4 22 -9 28 -5 5 -11 18 -13 29
-1 11 -5 22 -8 25 -3 3 -15 29 -27 59 -18 42 -20 57 -10 63 6 4 19 5 27 2 8
-4 24 -9 35 -12z"/>
<path d="M1757 4713 c-32 -5 -87 -49 -87 -69 0 -6 -7 -14 -15 -18 -8 -3 -15
-13 -15 -23 0 -10 -7 -31 -15 -47 -20 -38 -20 -177 0 -216 13 -25 18 -27 47
-20 60 14 69 21 62 44 -11 33 -8 140 5 165 7 12 17 18 23 15 7 -4 8 -3 4 4 -8
13 24 32 55 32 17 0 20 -4 15 -22 -4 -13 -9 -47 -13 -75 -3 -29 -9 -51 -13
-48 -3 2 -3 -24 2 -58 15 -115 61 -147 197 -134 11 0 17 5 15 9 -6 10 32 29
41 20 5 -4 5 -2 2 4 -4 7 0 25 8 40 8 16 20 52 26 80 10 45 9 56 -10 98 l-21
48 25 -4 c22 -5 26 0 35 31 20 73 15 87 -39 105 -28 9 -64 16 -81 16 -17 0
-39 4 -48 9 -20 11 -166 21 -205 14z m207 -163 c15 -5 34 -25 43 -44 14 -30
14 -41 3 -80 -12 -45 -13 -46 -55 -46 -38 0 -44 3 -49 26 -6 24 -1 96 11 137
5 20 12 21 47 7z"/>
<path d="M6381 4592 c-1 -16 -12 -27 -41 -39 -22 -10 -40 -21 -40 -25 0 -5 -7
-8 -15 -8 -8 0 -15 -5 -15 -11 0 -5 -4 -8 -9 -4 -5 3 -12 1 -15 -4 -6 -8 -18
-16 -126 -72 -25 -13 -47 -27 -50 -31 -3 -4 -18 -12 -34 -18 -28 -10 -29 -12
-22 -63 3 -28 6 -61 6 -73 0 -23 48 -47 115 -59 22 -4 44 -10 50 -13 5 -4 19
-8 30 -9 11 -2 29 -7 40 -12 11 -5 38 -14 60 -19 48 -13 186 -53 200 -59 10
-3 5 121 -5 130 -10 7 -65 26 -100 33 -19 3 -41 10 -50 14 -16 8 -55 20 -134
41 -59 15 -60 14 94 97 58 31 119 64 135 73 20 11 29 23 27 35 -2 11 -6 40 -9
67 -6 51 -21 59 -58 31 -18 -13 -20 -13 -27 3 -6 15 -7 15 -7 -5z"/>
<path d="M1392 4174 c-32 -22 -32 -111 1 -142 30 -29 58 -28 91 3 25 23 30 41
27 95 -4 52 -72 77 -119 44z"/>
<path d="M1587 4159 c-10 -35 -8 -117 1 -123 5 -3 114 -6 243 -6 l234 -1 3 62
c2 34 -1 65 -5 69 -4 5 -112 11 -239 15 l-231 7 -6 -23z"/>
<path d="M6181 4033 c-14 -3 -34 -11 -46 -19 -12 -8 -25 -11 -30 -7 -4 5 -6 3
-2 -2 3 -6 2 -17 -4 -25 -6 -10 -9 -11 -9 -2 0 6 -4 12 -10 12 -5 0 -9 -3 -9
-7 3 -21 -2 -34 -11 -28 -6 4 -10 3 -9 -2 3 -17 -1 -32 -14 -45 -7 -7 -21 -48
-31 -90 -19 -76 -19 -79 -1 -135 11 -32 27 -66 36 -77 17 -18 18 -18 57 10 23
16 43 37 45 47 3 9 1 15 -3 12 -10 -6 -30 50 -30 84 1 44 36 108 69 125 47 25
54 21 48 -26 -9 -64 -26 -185 -37 -253 -12 -72 -8 -76 81 -74 59 2 72 6 122
40 30 21 57 36 60 33 3 -3 4 3 4 13 -1 10 4 17 11 15 8 -1 11 2 7 8 -4 6 -1
18 7 27 9 11 13 48 13 118 0 70 -4 107 -13 118 -8 9 -10 22 -6 28 4 8 3 9 -4
5 -6 -4 -17 2 -24 14 -7 11 -18 20 -24 20 -16 0 -24 25 -13 39 6 7 5 8 -2 2
-12 -10 -40 -4 -50 11 -6 10 -144 19 -178 11z m168 -159 c39 -28 54 -78 40
-135 -7 -26 -16 -46 -20 -43 -4 2 -12 -2 -16 -11 -5 -8 -23 -18 -41 -21 -38
-8 -38 -8 -17 121 8 50 15 93 15 98 0 11 14 8 39 -9z"/>
<path d="M1924 3943 c-3 -16 -11 -38 -17 -51 -10 -21 -7 -27 25 -55 40 -35 52
-78 39 -137 -5 -24 -13 -35 -24 -34 -9 1 -15 -3 -14 -8 1 -5 -8 -17 -20 -25
-19 -13 -23 -13 -23 -2 0 10 -14 14 -45 14 -57 0 -59 -13 -2 -18 41 -3 41 -4
-9 -5 -50 -2 -83 15 -66 33 4 5 2 5 -4 2 -15 -9 -28 9 -43 54 -12 38 -2 74 37
129 9 13 11 21 5 16 -7 -4 -13 -4 -13 1 0 13 -55 73 -67 73 -17 0 -69 -70 -78
-105 -13 -53 -3 -195 15 -195 8 0 34 -59 31 -73 0 -4 5 -6 11 -5 7 2 12 -5 12
-15 -2 -14 1 -15 12 -6 9 7 14 8 14 1 0 -5 17 -20 38 -32 50 -30 164 -32 219
-4 111 56 163 177 133 305 -16 68 -26 85 -73 132 -48 46 -84 50 -93 10z"/>
<path d="M5950 3509 c0 -11 -4 -18 -8 -15 -4 2 -9 -3 -10 -12 -1 -9 -4 -34 -8
-54 -4 -28 -2 -39 7 -42 8 -2 41 -11 74 -20 33 -10 69 -21 80 -26 11 -4 41
-14 67 -21 26 -7 44 -17 41 -23 -4 -5 -1 -6 6 -2 7 5 24 3 39 -2 15 -5 54 -18
87 -27 33 -10 65 -22 72 -27 7 -5 16 -7 20 -5 5 3 26 -3 47 -14 73 -35 86 -28
116 65 13 41 5 55 -30 56 -8 0 -28 7 -44 15 -15 8 -35 15 -43 15 -8 0 -29 6
-46 13 -44 19 -101 37 -116 37 -7 0 -27 6 -44 14 -40 17 -168 56 -185 56 -8 0
-10 5 -6 12 4 7 3 8 -4 4 -6 -4 -32 0 -57 9 -57 19 -55 19 -55 -6z"/>
<path d="M2061 3443 c-8 -16 -18 -37 -23 -47 -9 -16 -5 -24 22 -46 22 -18 30
-31 25 -40 -5 -8 -4 -11 2 -7 21 13 38 -50 35 -132 -2 -24 -6 -32 -16 -28 -11
4 -13 1 -9 -10 4 -10 2 -14 -7 -11 -8 2 -29 42 -48 89 -19 46 -45 107 -58 135
-13 28 -24 56 -24 63 0 7 -7 20 -16 28 -14 15 -18 15 -45 -1 -16 -9 -34 -14
-39 -11 -6 3 -10 -3 -10 -14 0 -12 -4 -20 -8 -18 -30 9 -102 -121 -102 -183 0
-27 32 -124 43 -128 4 -2 7 -10 7 -18 0 -8 5 -14 11 -14 6 0 8 -7 5 -16 -3 -8
-2 -13 3 -10 10 7 33 -18 26 -27 -3 -4 -2 -5 1 -3 3 3 26 -6 51 -20 65 -34
163 -34 229 1 56 30 101 75 110 110 3 13 9 23 13 21 3 -2 7 23 9 55 6 116 -59
253 -139 294 -36 19 -33 20 -48 -12z m-133 -185 c19 -46 43 -98 59 -130 18
-37 16 -58 -6 -58 -25 0 -72 25 -64 34 4 4 1 4 -8 1 -19 -7 -49 52 -49 96 0
29 33 89 48 89 4 0 13 -15 20 -32z"/>
<path d="M5912 3254 c-18 -8 -35 -21 -38 -28 -3 -8 -14 -13 -24 -11 -13 3 -17
-1 -13 -11 3 -8 0 -14 -6 -14 -6 0 -11 -7 -11 -15 0 -8 -6 -15 -12 -15 -25 0
-58 -97 -58 -170 0 -78 17 -125 61 -169 54 -54 105 -75 184 -76 60 0 76 4 115
29 25 16 55 40 68 53 44 48 82 136 82 196 0 43 -21 117 -34 117 -4 0 -5 8 -2
17 4 10 5 15 1 12 -3 -3 -26 14 -52 37 -25 24 -50 41 -53 39 -4 -2 -16 2 -26
10 -25 19 -138 18 -182 -1z m132 -130 c9 -3 13 -11 9 -17 -3 -5 -1 -7 4 -4 21
13 62 -32 68 -76 7 -48 -4 -84 -37 -118 -41 -43 -144 -29 -190 25 -40 49 -30
138 20 175 27 20 93 28 126 15z"/>
<path d="M2216 2975 c-15 -8 -37 -15 -47 -15 -11 0 -19 -4 -19 -10 0 -5 -5
-10 -12 -10 -15 0 -88 -77 -88 -93 0 -8 -4 -7 -9 2 -7 11 -9 8 -10 -10 -1 -13
-4 -54 -7 -92 -5 -56 -2 -75 16 -112 28 -58 72 -102 121 -122 39 -15 54 -36
22 -31 -10 2 -18 -4 -19 -15 -2 -13 -1 -14 3 -1 4 12 9 8 21 -14 23 -42 55
-82 65 -82 8 0 70 44 95 68 8 7 18 9 24 6 6 -4 8 -3 5 3 -4 6 15 25 41 44 26
18 53 39 60 46 37 36 82 64 93 57 7 -4 9 -3 6 3 -8 13 17 36 28 25 5 -4 5 -2
2 4 -4 6 15 26 41 45 26 18 56 41 67 51 11 9 29 24 40 32 19 14 18 16 -23 65
-27 32 -40 56 -36 63 5 7 -12 -4 -36 -25 -30 -25 -50 -36 -64 -32 -12 3 -16 2
-9 -1 13 -6 -39 -64 -57 -64 -4 0 -11 -5 -13 -10 -3 -6 -4 -5 -3 2 6 27 -27
112 -55 142 -16 17 -29 37 -29 44 0 6 -3 11 -7 10 -9 -1 -32 7 -81 28 -42 18
-89 18 -126 -1z m128 -142 c50 -23 82 -93 65 -137 -17 -42 -29 -57 -42 -49 -6
4 -7 1 -2 -7 11 -18 -16 -31 -35 -17 -8 6 -12 7 -8 3 14 -16 -14 -36 -50 -36
-42 0 -106 44 -98 67 3 8 1 11 -4 8 -10 -6 -14 17 -10 70 3 48 74 111 127 114
12 1 38 -7 57 -16z"/>
<path d="M5500 2975 c-7 -8 -17 -12 -23 -8 -6 3 -7 1 -3 -5 4 -7 -5 -24 -20
-39 l-27 -27 83 -78 84 -78 -34 0 c-19 0 -44 -7 -54 -15 -10 -8 -23 -12 -29
-8 -6 3 -7 1 -4 -4 4 -6 1 -16 -7 -22 -11 -9 -15 -9 -19 1 -4 9 -6 8 -6 -3 -1
-9 -13 -38 -28 -65 -37 -65 -38 -158 -4 -221 27 -51 90 -109 138 -130 53 -21
135 -18 188 7 63 31 122 101 131 155 4 32 10 42 20 38 8 -3 13 -12 12 -21 -2
-8 4 -17 12 -19 12 -4 12 -3 2 5 -11 7 -10 11 5 17 10 5 21 8 25 7 4 -1 5 5 2
13 -5 13 6 20 28 16 4 0 4 7 1 16 -5 12 -2 15 10 10 11 -4 14 -2 10 9 -3 7 0
14 7 14 6 0 8 5 5 11 -4 6 -9 8 -12 5 -7 -7 -49 46 -45 57 1 5 -2 6 -6 3 -15
-9 -55 31 -46 46 4 7 4 10 -1 6 -10 -9 -37 11 -30 22 3 4 -1 7 -8 6 -8 0 -82
65 -167 147 -84 81 -158 147 -165 147 -7 0 -18 -7 -25 -15z m200 -340 c72 -37
95 -143 44 -204 -14 -17 -30 -29 -34 -26 -5 3 -11 1 -15 -5 -17 -27 -101 -3
-139 39 -97 107 17 262 144 196z"/>
<path d="M2605 2564 c-32 -9 -95 -76 -95 -101 0 -13 -4 -23 -10 -23 -5 0 -10
-11 -10 -24 0 -14 5 -28 10 -31 6 -3 10 -19 10 -36 0 -16 5 -29 10 -29 6 0 10
-6 10 -14 0 -8 11 -24 25 -37 13 -13 25 -29 25 -36 0 -6 3 -13 8 -15 16 -7 72
-87 73 -104 6 -58 1 -64 -46 -64 -30 0 -55 8 -79 24 -40 27 -96 86 -96 101 0
5 -9 21 -19 33 -16 22 -19 23 -34 7 -9 -9 -17 -12 -17 -6 0 6 -10 11 -22 10
-21 0 -21 -1 -4 -8 14 -5 16 -10 8 -15 -7 -4 -17 -4 -24 0 -6 4 -8 3 -5 -3 4
-6 0 -13 -8 -17 -28 -10 64 -139 130 -182 13 -9 22 -21 18 -28 -3 -6 -3 -8 1
-4 4 3 37 -7 73 -23 77 -34 108 -36 168 -8 49 23 85 65 105 121 13 34 12 42
-11 90 -13 29 -43 76 -65 104 -101 124 -114 167 -61 192 25 12 33 11 70 -8 58
-31 112 -86 145 -151 l28 -55 35 22 c43 29 68 32 48 7 -11 -15 -11 -16 1 -6
22 20 22 50 0 88 -11 20 -17 42 -14 48 4 7 4 9 0 6 -8 -8 -132 112 -128 124 1
5 -1 6 -6 3 -4 -2 -28 7 -52 20 -45 26 -149 40 -195 28z"/>
<path d="M5150 2411 c-8 -6 -18 -7 -23 -4 -4 3 -16 -1 -25 -9 -33 -26 -63 -39
-75 -32 -7 4 -9 4 -5 -1 4 -4 -3 -18 -17 -31 -33 -30 -65 -89 -65 -118 0 -19
6 -25 33 -28 17 -3 39 -8 49 -12 12 -5 18 -1 23 14 9 30 43 67 81 91 33 20
120 27 109 9 -3 -5 0 -7 8 -4 8 3 19 -1 25 -8 8 -10 3 -19 -25 -38 -19 -13
-44 -23 -55 -23 -11 1 -18 -1 -15 -4 10 -9 -39 -47 -75 -59 -10 -4 -18 -10
-18 -15 0 -5 -5 -9 -10 -9 -23 0 -90 -54 -90 -71 0 -11 5 -19 11 -19 6 0 8 -7
5 -17 -4 -10 -4 -15 -1 -11 4 3 20 -7 36 -23 37 -36 123 -79 159 -79 31 0 116
27 146 47 11 7 24 10 29 6 4 -5 5 -2 1 5 -4 7 -1 15 7 18 24 9 73 86 86 136
14 50 4 121 -25 176 -20 39 -102 109 -136 116 -45 9 -131 7 -148 -3z m188
-263 c2 -26 -4 -43 -23 -67 -15 -17 -30 -29 -35 -26 -4 3 -10 -2 -14 -10 -3
-9 -19 -15 -41 -15 -41 0 -78 16 -70 30 3 6 -1 7 -9 4 -9 -3 -16 -2 -16 2 0 8
24 24 85 59 11 6 38 23 60 38 22 14 45 25 50 23 6 -1 11 -18 13 -38z"/>
<path d="M4775 2224 c-22 -8 -48 -18 -58 -21 -12 -4 -16 -11 -11 -22 3 -9 11
-29 17 -46 5 -16 16 -43 24 -58 8 -15 15 -43 16 -61 1 -19 5 -32 9 -30 3 2 9
-13 13 -35 10 -58 -14 -106 -64 -128 -34 -14 -41 -23 -41 -45 0 -15 5 -30 10
-33 6 -3 10 -17 10 -31 0 -18 5 -24 23 -24 32 0 82 34 103 69 20 33 34 40 34
17 0 -25 18 -28 75 -10 35 11 55 23 55 33 0 15 -34 119 -50 156 -5 11 -17 43
-25 70 -9 28 -23 64 -31 82 -8 17 -14 37 -14 44 0 21 -34 88 -45 88 -5 0 -28
-7 -50 -15z"/>
<path d="M3403 2183 c-7 -3 -13 -16 -13 -30 0 -14 -6 -39 -13 -56 -22 -52 -37
-102 -37 -126 0 -12 -3 -20 -7 -18 -5 3 -9 -12 -11 -33 -1 -21 -9 -51 -17 -67
-8 -15 -15 -35 -15 -43 0 -8 -7 -28 -15 -44 -8 -15 -15 -35 -15 -43 0 -12 -7
-14 -31 -9 -17 3 -38 6 -46 6 -8 0 -11 5 -7 12 4 7 3 8 -5 4 -6 -4 -17 -3 -24
2 -7 5 -28 12 -47 16 -33 6 -36 4 -48 -32 -24 -66 -21 -84 13 -88 16 -2 39 -7
50 -12 22 -11 148 -49 210 -64 22 -5 44 -13 50 -19 5 -5 18 -9 30 -9 11 0 47
-9 79 -20 73 -25 72 -25 81 3 25 83 25 86 -8 102 -16 8 -40 15 -53 15 -13 0
-26 5 -29 10 -3 6 -20 10 -36 10 -16 0 -32 6 -35 13 -2 7 7 48 21 90 14 43 25
82 25 88 0 6 6 25 14 42 8 18 16 43 19 57 5 26 23 87 50 173 9 27 13 47 11 44
-3 -3 -20 -1 -37 5 -60 18 -92 25 -104 21z"/>
<path d="M3756 2073 c-8 -47 -21 -178 -35 -349 -6 -72 -15 -143 -21 -158 -5
-15 -10 -40 -10 -55 0 -27 2 -28 71 -38 38 -5 72 -6 75 -2 2 4 6 27 9 51 2 24
11 106 20 183 8 77 20 178 26 225 22 174 25 154 -26 168 -25 7 -58 12 -74 12
-25 0 -30 -4 -35 -37z"/>
<path d="M4199 2093 c-14 -9 -31 -31 -38 -49 -10 -28 -9 -38 6 -66 9 -18 16
-36 16 -39 -1 -4 23 -6 53 -5 46 1 59 6 75 26 29 39 25 87 -12 121 -35 33 -62
36 -100 12z"/>
</g>
</svg>
